<svg width="22" height="22" viewBox="0 0 22 22" fill="none" xmlns="http://www.w3.org/2000/svg">
<path d="M15.7 3.29999H6.30005C4.64319 3.29999 3.30005 4.64313 3.30005 6.29999V15.7C3.30005 17.3568 4.6432 18.7 6.30005 18.7H15.7C17.3569 18.7 18.7 17.3568 18.7 15.7V6.29999C18.7 4.64313 17.3569 3.29999 15.7 3.29999Z" fill="#F7DF1E"/>
<path d="M13.6448 15.3313C13.955 15.8378 14.3586 16.2101 15.0723 16.2101C15.672 16.2101 16.055 15.9104 16.055 15.4963C16.055 15.0001 15.6614 14.8243 15.0014 14.5356L14.6397 14.3804C13.5954 13.9355 12.9017 13.3782 12.9017 12.1999C12.9017 11.1146 13.7286 10.2884 15.021 10.2884C15.9411 10.2884 16.6026 10.6086 17.0792 11.4471L15.9523 12.1706C15.7042 11.7257 15.4366 11.5505 15.021 11.5505C14.5971 11.5505 14.3285 11.8193 14.3285 12.1706C14.3285 12.6047 14.5974 12.7805 15.2183 13.0494L15.58 13.2044C16.8096 13.7316 17.5038 14.2692 17.5038 15.4777C17.5038 16.7806 16.4803 17.4944 15.1058 17.4944C13.7619 17.4944 12.8936 16.8539 12.4688 16.0145L13.6448 15.3313ZM8.53271 15.4567C8.76005 15.86 8.96685 16.201 9.46405 16.201C9.93949 16.201 10.2394 16.015 10.2394 15.2917V10.371H11.6865V15.3112C11.6865 16.8097 10.808 17.4917 9.52565 17.4917C8.36698 17.4917 7.69598 16.8921 7.35474 16.1698L8.53271 15.4567Z" fill="black"/>
</svg>
