<svg width="22" height="22" viewBox="0 0 22 22" fill="none" xmlns="http://www.w3.org/2000/svg">
<path fill-rule="evenodd" clip-rule="evenodd" d="M15.7825 7.87734C17.8811 8.51972 19.25 9.5556 19.25 10.6487C19.25 11.7383 17.8879 12.7742 15.8027 13.4166C16.2904 15.5489 16.0785 17.2473 15.1334 17.7921C14.9114 17.92 14.6558 17.9805 14.3733 17.9805C13.4484 17.9805 12.2377 17.328 11.0135 16.1913C9.78925 17.3347 8.57847 17.9939 7.65359 17.9939C7.37108 17.9939 7.11547 17.9334 6.89686 17.8056C5.94843 17.2608 5.73318 15.559 6.21749 13.4199C4.11883 12.7776 2.75 11.7417 2.75 10.6487C2.75 9.55893 4.11211 8.52644 6.20404 7.88071C5.71637 5.74842 5.92825 4.04999 6.87332 3.50514C7.09529 3.37734 7.35089 3.3168 7.63341 3.3168V3.31344C8.55829 3.31344 9.76907 3.96591 10.9932 5.10268C12.2175 3.95918 13.4283 3.29999 14.3531 3.29999V3.30335C14.631 3.30383 14.8854 3.3644 15.1031 3.49169C16.0516 4.03653 16.2668 5.73833 15.7825 7.87734ZM14.3498 4.04999C13.6503 4.05176 12.6227 4.6099 11.5281 5.62734C12.0023 6.12173 12.4731 6.68676 12.9271 7.30895C13.6839 7.38967 14.4036 7.51412 15.0628 7.67555C15.1368 7.33586 15.1973 7.0029 15.2343 6.68676C15.389 5.40201 15.1906 4.40312 14.7332 4.14079C14.6289 4.08362 14.5045 4.05335 14.3498 4.05335V4.04999ZM10.4585 5.63071C9.36211 4.61837 8.3296 4.06344 7.63341 4.06344V4.0668C7.4787 4.0668 7.34753 4.09371 7.24664 4.15425C6.7926 4.41994 6.59753 5.41882 6.7556 6.70357C6.79596 7.01636 6.85314 7.34259 6.9305 7.67891C7.58969 7.51412 8.30941 7.38967 9.06953 7.30895C9.51684 6.68676 9.98767 6.1251 10.4585 5.63071ZM14.417 9.73385C14.5919 9.28653 14.7466 8.83923 14.8711 8.40537C14.4305 8.29774 13.9697 8.2103 13.4922 8.13967C13.657 8.39528 13.8218 8.65761 13.9765 8.92667C14.1345 9.19571 14.2792 9.46478 14.417 9.73385ZM12.5202 13.272C12.7993 12.8717 13.0684 12.4413 13.3307 11.9872C13.5829 11.5466 13.8151 11.096 14.0269 10.6453C13.8151 10.1946 13.5829 9.7473 13.3274 9.3067C13.065 8.85604 12.7926 8.42891 12.5134 8.02869C12.0157 7.98833 11.5079 7.96478 11 7.96478C10.4888 7.96478 9.98095 7.98833 9.47983 8.03205C9.2007 8.43227 8.93163 8.86277 8.66929 9.31682C8.41706 9.75741 8.18162 10.2081 7.97309 10.6587C8.18498 11.1094 8.41706 11.5567 8.67262 11.9973C8.93496 12.448 9.20742 12.8751 9.48655 13.2753C9.98428 13.3157 10.4921 13.3392 11 13.3392C11.5112 13.3392 12.0191 13.3157 12.5202 13.272ZM14.8812 12.8886C14.7534 12.4513 14.5986 12.0007 14.417 11.55C14.2792 11.819 14.1345 12.0915 13.9798 12.3605C13.8251 12.633 13.6603 12.8986 13.4955 13.1576C13.9765 13.087 14.4406 12.9962 14.8812 12.8886ZM10.0718 14.0623C10.3812 14.4558 10.6939 14.8157 11.0068 15.1386C11.3161 14.8157 11.6289 14.4558 11.9316 14.0623C11.6255 14.0791 11.3128 14.0859 10.9966 14.0859C10.6839 14.0859 10.3745 14.0758 10.0718 14.0623ZM7.12556 12.8919C7.56614 12.9995 8.02691 13.087 8.50449 13.1576C8.33968 12.902 8.17825 12.6397 8.02018 12.3706C7.86211 12.1015 7.71749 11.8325 7.57959 11.5635C7.40471 12.0107 7.25 12.458 7.12556 12.8919ZM11.9249 7.23496C11.6155 6.84147 11.3027 6.4816 10.9899 6.15873C10.6805 6.4816 10.3677 6.84147 10.065 7.23496C10.3711 7.21815 10.6839 7.21142 11 7.21142C11.3128 7.21142 11.6222 7.22151 11.9249 7.23496ZM8.01681 8.93676C8.17152 8.66433 8.33632 8.39864 8.5011 8.13967C8.02018 8.2103 7.55606 8.30111 7.11547 8.40537C7.24327 8.84259 7.39798 9.29325 7.57959 9.74396C7.71749 9.47489 7.86211 9.20582 8.01681 8.93676ZM3.49664 10.6487C3.49664 11.1767 4.26682 11.8426 5.4574 12.3504C5.75 12.4749 6.06615 12.5892 6.39911 12.6935C6.58744 12.0376 6.83632 11.3549 7.14574 10.6554C6.83296 9.95245 6.58072 9.26635 6.38901 8.60716C6.06278 8.71142 5.74664 8.82241 5.4574 8.94685C4.26682 9.45133 3.49664 10.1206 3.49664 10.6487ZM6.7657 14.6105C6.61099 15.8953 6.80942 16.8941 7.26682 17.1565C7.36771 17.2137 7.49552 17.2439 7.64686 17.2473C8.34641 17.2473 9.37556 16.689 10.472 15.6699C9.99773 15.1755 9.5269 14.6105 9.07286 13.9883C8.31615 13.9076 7.59641 13.7832 6.93722 13.6217C6.86323 13.9614 6.80269 14.2944 6.7657 14.6105ZM14.7534 17.143C15.2074 16.8774 15.4024 15.8785 15.2444 14.5937C15.2074 14.2809 15.1469 13.9547 15.0695 13.615C14.4103 13.7798 13.6906 13.9043 12.9305 13.985C12.4832 14.6071 12.0123 15.1688 11.5415 15.6632C12.6379 16.6755 13.6704 17.2305 14.3666 17.2305C14.5213 17.2305 14.6525 17.2036 14.7534 17.143ZM15.6076 12.6901C15.9339 12.5859 16.25 12.4749 16.5393 12.3504C17.7298 11.8459 18.5 11.1767 18.5034 10.6487C18.5034 10.1206 17.7332 9.45472 16.5426 8.94685C16.2466 8.82241 15.9305 8.70806 15.5975 8.6038C15.4092 9.25963 15.1603 9.94239 14.8509 10.6419C15.1637 11.3448 15.4159 12.0309 15.6076 12.6901ZM12.5334 10.6486C12.5334 11.4975 11.8452 12.1856 10.9963 12.1856C10.1475 12.1856 9.45936 11.4975 9.45936 10.6486C9.45936 9.79977 10.1475 9.11164 10.9963 9.11164C11.8452 9.11164 12.5334 9.79977 12.5334 10.6486Z" fill="#61DAFB"/>
</svg>
