<svg width="22" height="22" viewBox="0 0 22 22" fill="none" xmlns="http://www.w3.org/2000/svg">
<mask id="mask0_3693_149" style="mask-type:alpha" maskUnits="userSpaceOnUse" x="4" y="2" width="14" height="18">
<path d="M4.91055 17.9219L4.4005 4.33137C4.38365 3.88253 4.72781 3.50214 5.17609 3.47412L16.7358 2.75164C17.1921 2.72312 17.5851 3.06991 17.6137 3.52621C17.6147 3.5434 17.6153 3.56062 17.6153 3.57784V18.3872C17.6153 18.8444 17.2446 19.215 16.7875 19.215C16.7751 19.215 16.7627 19.2147 16.7503 19.2141L5.70064 18.7179C5.2703 18.6985 4.9267 18.3524 4.91055 17.9219Z" fill="white"/>
</mask>
<g mask="url(#mask0_3693_149)">
<path d="M4.91055 17.9219L4.4005 4.33137C4.38365 3.88253 4.72781 3.50214 5.17609 3.47412L16.7358 2.75164C17.1921 2.72312 17.5851 3.06991 17.6137 3.52621C17.6147 3.5434 17.6153 3.56062 17.6153 3.57784V18.3872C17.6153 18.8444 17.2446 19.215 16.7875 19.215C16.7751 19.215 16.7627 19.2147 16.7503 19.2141L5.70064 18.7179C5.2703 18.6985 4.9267 18.3524 4.91055 17.9219Z" fill="#FF4785"/>
<path d="M14.1585 4.77381L14.2374 2.87473L15.8249 2.75L15.8933 4.70845C15.8957 4.77661 15.8424 4.83379 15.7742 4.83617C15.745 4.83719 15.7164 4.82784 15.6935 4.80977L15.0813 4.3275L14.3565 4.87732C14.3021 4.91854 14.2247 4.90791 14.1834 4.85357C14.1661 4.8307 14.1573 4.80249 14.1585 4.77381ZM12.1282 8.95588C12.1282 9.27795 14.2976 9.12359 14.5888 8.89736C14.5888 6.70414 13.412 5.55165 11.257 5.55165C9.10207 5.55165 7.89468 6.72208 7.89468 8.47772C7.89468 11.5355 12.0212 11.594 12.0212 13.2619C12.0212 13.73 11.792 14.008 11.2876 14.008C10.6304 14.008 10.3706 13.6724 10.4012 12.5312C10.4012 12.2836 7.89468 12.2065 7.81826 12.5312C7.62367 15.2967 9.3466 16.0943 11.3182 16.0943C13.2286 16.0943 14.7264 15.076 14.7264 13.2326C14.7264 9.95539 10.5387 10.0432 10.5387 8.4192C10.5387 7.76083 11.0278 7.67305 11.3182 7.67305C11.6238 7.67305 12.174 7.72693 12.1282 8.95588Z" fill="white"/>
</g>
</svg>
